<svg viewBox="0 0 503.8 442.32" xmlns="http://www.w3.org/2000/svg" xmlns:xlink="http://www.w3.org/1999/xlink"><linearGradient id="a" gradientUnits="userSpaceOnUse" x1="661.28" x2="483.54" y1="466.82" y2="720.09"><stop offset="0" stop-color="#ecf0f1"/><stop offset="1" stop-color="#ecf0f1"/></linearGradient><linearGradient id="b" x1="564.53" x2="364.82" xlink:href="#a" y1="398.97" y2="683.56"/><linearGradient id="c" x1="638.66" x2="438.95" xlink:href="#a" y1="451" y2="735.59"/><linearGradient id="d" x1="712.8" x2="513.09" xlink:href="#a" y1="503.03" y2="787.62"/><path d="m777.85 738.12a16.66 16.66 0 0 1 -12.67-5.84c-5.92-6.92-10.68-12.87-14.48-17.64-10.54-13.18-13.3-16.16-18.59-17.8-8.23-2.56-24.39-2.51-53.74-2.41h-215.75a114.65 114.65 0 0 1 -114.52-114.49v-80.59a115 115 0 0 1 80.9-109.45 114.71 114.71 0 0 1 112.7-94.1h195.68a114.65 114.65 0 0 1 114.52 114.52v123a16.67 16.67 0 1 1 -33.33 0v-123a81.29 81.29 0 0 0 -81.19-81.2h-195.72a81.29 81.29 0 0 0 -81.2 81.2v80.59a81.28 81.28 0 0 0 81.2 81.19h236.19a16.66 16.66 0 0 1 16.66 16.67v132.68a16.66 16.66 0 0 1 -10.9 15.63 16.5 16.5 0 0 1 -5.76 1.04zm-86.13-77c40.24 0 54.32 1.29 69.46 15.3v-70.99h-219.52a114.65 114.65 0 0 1 -114.53-114.52v-64.55a81.92 81.92 0 0 0 -24.55 18.5 80.91 80.91 0 0 0 -21.16 54.49v80.59a81.3 81.3 0 0 0 81.2 81.2z" fill="url(#a)" transform="translate(-348.1 -295.8)"/><path d="m547 450.67a18.73 18.73 0 1 0 -18.73 18.72 18.73 18.73 0 0 0 18.73-18.72z" fill="url(#b)" transform="translate(-348.1 -295.8)"/><path d="m657.62 450.67a18.73 18.73 0 1 0 -18.72 18.72 18.72 18.72 0 0 0 18.72-18.72z" fill="url(#c)" transform="translate(-348.1 -295.8)"/><path d="m768.27 450.67a18.73 18.73 0 1 0 -18.72 18.72 18.72 18.72 0 0 0 18.72-18.72z" fill="url(#d)" transform="translate(-348.1 -295.8)"/></svg>